<?xml version="1.0" standalone="no"?>
<!DOCTYPE svg PUBLIC "-//W3C//DTD SVG 20010904//EN"
 "http://www.w3.org/TR/2001/REC-SVG-20010904/DTD/svg10.dtd">
<svg version="1.0" xmlns="http://www.w3.org/2000/svg"
 width="500.000000pt" height="500.000000pt" viewBox="0 0 500.000000 500.000000"
 preserveAspectRatio="xMidYMid meet">
<metadata>
Created by potrace 1.11, written by Peter Selinger 2001-2013
</metadata>
<g transform="translate(0.000000,500.000000) scale(0.100000,-0.100000)"
fill="#000000" stroke="none">
<path d="M3605 3330 c-2 -3 -4 -135 -4 -293 l0 -288 57 3 57 3 5 111 c6 123
16 145 71 146 54 2 62 -18 64 -144 l1 -113 53 -3 c30 -2 57 1 60 7 7 10 7 237
0 260 -8 29 -51 69 -82 76 -58 14 -90 15 -103 4 -8 -6 -14 -8 -14 -4 0 5 -9 0
-20 -10 -11 -10 -23 -16 -26 -13 -3 4 -6 64 -6 135 l0 128 -55 1 c-30 0 -56
-3 -58 -6z"/>
<path d="M2482 3171 c2 -66 -4 -81 -32 -74 -18 5 -20 0 -20 -41 0 -42 2 -46
25 -46 21 0 25 -5 25 -32 2 -158 11 -192 57 -220 l25 -15 -51 -21 c-68 -28
-147 -104 -181 -175 -25 -50 -28 -67 -26 -136 3 -101 36 -172 109 -236 78 -68
140 -88 262 -83 74 3 112 10 147 25 46 21 148 112 148 132 0 5 -35 27 -79 48
l-78 40 -37 -30 c-44 -35 -118 -47 -166 -27 -36 15 -70 55 -70 81 0 18 12 19
221 19 l222 0 -5 73 c-10 159 -102 261 -260 289 -46 8 -57 13 -44 20 9 5 13
14 9 21 -9 14 -10 19 -12 47 -1 15 -8 20 -30 20 -36 0 -41 13 -41 96 0 46 4
64 13 63 6 -1 24 -1 38 0 24 1 26 4 25 44 -2 37 -4 42 -26 44 -14 0 -31 1 -38
2 -10 1 -13 16 -11 54 1 29 0 58 -4 63 -3 6 -31 11 -61 12 l-55 0 1 -57z m217
-582 c26 -9 61 -51 61 -72 0 -3 -49 -5 -110 -6 -60 -1 -110 0 -110 3 0 21 28
57 54 70 37 19 62 20 105 5z"/>
<path d="M1910 2919 c0 -127 -3 -229 -7 -227 -94 48 -110 53 -188 52 -136 0
-225 -57 -281 -179 -23 -50 -28 -74 -28 -145 -1 -75 3 -93 30 -150 56 -119
131 -170 257 -178 86 -5 146 11 196 53 l27 24 -4 -29 -4 -29 107 -3 c59 -2
109 0 111 3 2 3 4 237 4 520 l1 514 -110 3 -111 3 0 -232z m-75 -379 c50 -24
75 -65 75 -122 0 -54 -27 -100 -73 -121 -45 -22 -84 -21 -126 1 -96 52 -90
193 10 244 44 23 63 23 114 -2z"/>
<path d="M4050 3148 c0 -2 -1 -236 -3 -520 l-2 -517 108 -3 c60 -2 111 -1 113
1 2 2 4 53 4 113 0 59 3 108 6 108 4 0 56 -50 116 -111 l109 -111 141 0 c77 1
142 3 144 4 2 2 -68 75 -156 163 l-159 158 146 146 145 146 -143 5 -144 5 -50
-52 c-27 -28 -72 -75 -100 -103 l-50 -53 -3 312 -2 311 -110 0 c-61 0 -110 -1
-110 -2z"/>
<path d="M797 3104 c-1 -2 -23 -5 -48 -7 -25 -2 -50 -6 -55 -9 -7 -4 -46 -16
-74 -23 -3 0 -15 -6 -26 -13 -12 -6 -24 -8 -28 -5 -3 3 -6 1 -6 -6 0 -8 -7
-11 -15 -7 -8 3 -15 1 -15 -4 0 -5 -16 -16 -35 -25 -19 -9 -39 -23 -46 -31 -6
-8 -16 -14 -21 -14 -9 0 -122 -112 -168 -168 -14 -16 -24 -35 -22 -41 2 -6 0
-11 -5 -11 -5 0 -9 -10 -10 -21 -1 -12 -9 -29 -18 -39 -9 -10 -17 -27 -18 -39
-1 -11 -5 -21 -9 -21 -4 0 -8 -8 -8 -18 0 -10 -3 -22 -7 -26 -14 -14 -23 -266
-9 -266 4 0 6 -13 4 -30 -3 -16 -1 -30 3 -30 4 0 10 -12 14 -27 3 -15 15 -44
25 -66 11 -22 17 -44 13 -50 -3 -6 -2 -7 4 -4 5 4 16 -6 24 -21 7 -15 32 -50
56 -78 23 -28 40 -54 38 -58 -3 -3 -2 -4 1 -1 4 2 30 -16 58 -40 90 -79 218
-138 346 -159 89 -15 287 -11 316 6 5 3 25 9 44 13 19 3 69 23 112 42 59 27
77 41 81 59 2 14 2 23 0 20 -3 -3 -30 46 -60 107 -30 62 -57 114 -59 116 -2 2
-14 0 -26 -6 -13 -6 -26 -10 -29 -9 -3 0 -12 -4 -20 -10 -33 -27 -125 -47
-204 -46 -86 2 -202 31 -229 58 -8 8 -18 14 -21 14 -17 -2 -97 89 -125 141
-26 49 -33 76 -37 140 -6 88 14 182 48 218 10 10 16 21 14 23 -2 2 5 14 17 28
11 14 16 18 12 10 -4 -8 -4 -12 1 -8 4 4 13 18 20 30 6 13 19 22 28 22 9 -1
15 1 12 5 -2 4 9 15 26 25 16 9 29 15 29 11 0 -3 10 1 23 9 32 21 111 37 192
38 75 1 144 -17 229 -59 26 -13 45 -20 42 -15 -3 5 3 18 14 29 10 12 16 24 13
27 -4 3 1 14 10 23 8 10 16 21 17 25 2 19 58 127 63 122 3 -3 4 3 3 13 0 10
-11 25 -24 34 -12 8 -19 19 -15 24 5 4 3 5 -4 1 -7 -4 -23 0 -35 8 -25 15
-137 49 -203 61 -41 8 -212 15 -218 9z"/>
<path d="M2856 3088 c-47 -24 -76 -49 -76 -65 0 -7 -4 -13 -9 -13 -24 0 -30
-124 -9 -162 44 -76 95 -103 190 -102 59 0 74 4 110 30 48 33 57 67 21 72 -13
2 -23 7 -23 12 0 11 -46 3 -73 -14 -12 -7 -28 -12 -34 -11 -7 2 -19 3 -26 4
-19 2 -57 39 -57 56 0 12 22 15 124 15 90 0 126 3 129 13 6 16 -17 92 -37 122
-9 14 -23 25 -31 25 -8 0 -15 4 -15 9 0 28 -135 34 -184 9z m133 -77 c21 -28
12 -35 -47 -39 -42 -2 -54 1 -59 14 -15 39 80 62 106 25z"/>
<path d="M3339 3100 c-31 -9 -79 -39 -97 -60 -21 -25 -47 -84 -46 -105 1 -38
15 -95 23 -95 5 0 11 -9 14 -20 4 -17 66 -62 90 -66 4 -1 13 -2 20 -3 6 -1
-10 -11 -38 -21 -131 -51 -205 -168 -201 -321 6 -190 127 -319 302 -319 80 0
125 12 172 47 32 24 32 24 32 3 0 -14 -4 -19 -12 -14 -10 5 -10 4 -1 -6 10
-11 128 -16 233 -10 3 0 4 139 2 310 l-3 310 -109 0 c-110 0 -110 0 -110 -24
l0 -25 -40 27 c-23 14 -53 28 -68 30 -35 4 -54 22 -24 22 26 0 27 11 6 56 -13
28 -21 33 -38 28 -29 -9 -27 -9 -63 0 -37 9 -69 63 -57 99 16 50 37 65 92 63
49 -1 53 0 67 30 8 18 15 35 15 38 0 21 -116 39 -161 26z m182 -555 c13 -3 37
-18 53 -34 37 -38 49 -125 22 -166 -39 -59 -116 -80 -179 -50 -52 25 -72 62
-72 128 1 50 4 61 30 87 17 16 40 31 52 33 12 2 26 6 30 10 3 4 14 5 24 2 10
-3 28 -8 40 -10z"/>
<path d="M2209 2870 c-47 -46 -26 -113 40 -126 25 -5 36 -1 60 24 35 35 34 76
-2 104 -38 29 -68 29 -98 -2z"/>
<path d="M838 2745 c-2 -2 -20 -6 -41 -9 -21 -3 -58 -15 -83 -26 -47 -22 -144
-108 -144 -128 0 -7 -4 -12 -10 -12 -5 0 -9 -3 -8 -7 0 -5 -1 -15 -5 -23 -19
-51 -24 -81 -20 -130 2 -30 4 -65 3 -77 0 -13 5 -23 11 -23 5 0 8 -4 5 -9 -3
-4 6 -23 19 -42 14 -19 32 -43 40 -55 16 -22 113 -96 102 -78 -3 6 15 1 41
-11 60 -28 191 -32 272 -8 30 9 58 16 63 15 4 -1 7 2 7 8 0 5 7 10 15 10 8 0
15 5 15 10 0 6 5 10 11 10 18 0 86 75 109 120 38 75 29 264 -14 292 -6 4 -7 8
-3 8 12 0 -38 57 -82 92 -22 18 -88 51 -106 53 -5 0 -16 4 -23 9 -13 8 -167
18 -174 11z"/>
<path d="M2515 1973 c-87 -10 -95 -13 -95 -38 0 -20 5 -25 24 -25 19 0 24 -6
30 -37 3 -21 6 -59 6 -85 0 -46 1 -48 29 -48 25 0 29 4 35 38 3 20 6 61 6 90
0 46 2 52 21 52 16 0 20 5 17 27 -3 28 -17 33 -73 26z"/>
<path d="M2055 1951 c-46 -9 -75 -61 -75 -136 0 -81 19 -101 85 -92 25 4 45 3
45 -2 0 -4 12 -6 26 -3 23 4 25 8 20 35 -3 16 -6 43 -6 59 0 27 -2 29 -32 26
-28 -2 -33 -7 -33 -28 0 -16 -6 -26 -18 -28 -16 -3 -18 3 -15 54 2 35 8 59 16
62 6 2 12 -3 12 -12 0 -18 36 -22 60 -6 13 8 13 12 0 36 -18 32 -44 42 -85 35z"/>
<path d="M3648 1946 c-35 -18 -61 -72 -60 -125 3 -87 30 -116 92 -101 14 4 40
3 59 -1 l33 -7 -6 36 c-3 20 -6 50 -6 65 0 26 -3 28 -32 25 -28 -2 -34 -8 -36
-31 -5 -45 -27 -25 -30 28 -3 50 12 83 24 52 8 -22 62 -23 70 -2 17 43 -59 85
-108 61z"/>
<path d="M4288 1953 c-13 -3 -18 -15 -18 -41 l0 -37 -21 33 c-22 33 -46 40
-80 21 -19 -10 -20 -17 -13 -107 3 -53 9 -100 13 -104 3 -4 16 -5 28 -2 18 5
23 15 25 53 l3 46 23 -42 c18 -35 28 -43 51 -43 l29 0 7 104 c8 127 6 133 -47
119z"/>
<path d="M4712 1948 c-29 -8 -32 -11 -26 -36 4 -15 18 -49 31 -75 22 -43 23
-52 11 -83 -11 -32 -11 -37 7 -50 10 -8 22 -14 26 -14 10 0 66 123 85 186 18
62 12 74 -33 74 -17 0 -23 -8 -28 -42 -8 -44 -20 -37 -27 15 -5 34 -7 36 -46
25z"/>
<path d="M1563 1940 c-21 -9 -23 -16 -23 -87 0 -114 4 -123 53 -123 34 0 46 6
79 40 33 36 38 47 38 88 0 26 -4 52 -8 58 -20 31 -91 43 -139 24z m75 -78 c3
-32 -12 -72 -28 -72 -5 0 -7 12 -5 28 2 15 4 40 4 55 1 39 25 30 29 -11z"/>
<path d="M3365 1936 c-2 -6 -9 -29 -16 -51 -6 -22 -23 -62 -36 -88 -26 -52
-22 -70 17 -80 15 -4 22 1 26 18 3 14 16 26 31 30 30 7 43 -7 43 -47 0 -29 8
-32 48 -22 26 7 27 20 7 99 -26 100 -51 142 -86 147 -17 3 -32 0 -34 -6z m32
-118 c-3 -7 -5 -2 -5 12 0 14 2 19 5 13 2 -7 2 -19 0 -25z"/>
<path d="M3925 1936 c-2 -6 -9 -29 -16 -51 -6 -22 -23 -62 -36 -88 -26 -52
-22 -70 17 -80 15 -4 22 1 26 18 3 14 16 26 31 30 30 7 43 -7 43 -47 0 -29 8
-32 48 -22 26 7 27 20 7 99 -26 100 -51 142 -86 147 -17 3 -32 0 -34 -6z m32
-118 c-3 -7 -5 -2 -5 12 0 14 2 19 5 13 2 -7 2 -19 0 -25z"/>
<path d="M1807 1933 c-3 -5 -3 -54 0 -111 l6 -102 28 0 29 0 0 100 c0 55 1
103 3 108 3 10 -60 15 -66 5z"/>
<path d="M2256 1932 c-2 -4 -2 -53 1 -110 l6 -102 28 0 29 0 0 110 0 110 -29
0 c-17 0 -32 -3 -35 -8z"/>
<path d="M2709 1938 c0 -2 -2 -14 -5 -26 -2 -13 -17 -56 -33 -95 -20 -50 -26
-76 -19 -84 15 -19 46 -16 58 6 13 26 50 37 61 20 5 -8 9 -26 9 -41 0 -22 5
-28 23 -28 57 1 59 44 9 175 -27 68 -29 70 -65 73 -20 2 -37 2 -38 0z m38
-120 c-3 -7 -5 -2 -5 12 0 14 2 19 5 13 2 -7 2 -19 0 -25z"/>
<path d="M2945 1930 c-5 -9 0 -93 11 -187 l5 -43 65 0 64 0 0 30 c0 28 -3 30
-35 30 l-35 0 0 90 0 90 -34 0 c-19 0 -37 -4 -41 -10z"/>
<path d="M4484 1922 c-33 -28 -44 -56 -44 -115 0 -68 18 -87 83 -87 37 0 49 5
67 27 25 32 22 47 -12 51 -19 2 -27 -2 -31 -19 -5 -20 -8 -21 -23 -9 -12 11
-15 26 -12 62 3 27 8 52 12 55 6 7 21 -9 29 -30 5 -17 57 5 57 24 0 51 -82 77
-126 41z"/>
</g>
</svg>
