<?xml version="1.0" standalone="no"?>
<!DOCTYPE svg PUBLIC "-//W3C//DTD SVG 20010904//EN"
 "http://www.w3.org/TR/2001/REC-SVG-20010904/DTD/svg10.dtd">
<svg version="1.0" xmlns="http://www.w3.org/2000/svg"
 width="172.000000pt" height="172.000000pt" viewBox="0 0 172.000000 172.000000"
 preserveAspectRatio="xMidYMid meet">
<metadata>
Created by potrace 1.11, written by Peter Selinger 2001-2013
</metadata>
<g transform="translate(0.000000,172.000000) scale(0.100000,-0.100000)"
fill="#000000" stroke="none">
<path d="M893 1519 c-28 -5 -71 -15 -94 -23 -24 -8 -46 -13 -51 -10 -4 3 -8 0
-8 -6 0 -6 -4 -8 -10 -5 -5 3 -10 1 -10 -5 0 -7 -7 -9 -17 -6 -10 4 -14 4 -11
0 10 -9 -62 -45 -75 -37 -6 3 -7 1 -3 -5 3 -6 -3 -13 -14 -17 -11 -3 -20 -11
-20 -17 0 -6 -2 -9 -5 -6 -10 10 -125 -105 -164 -163 -21 -32 -41 -55 -45 -52
-3 3 -4 -4 -1 -15 2 -12 -5 -32 -16 -46 -10 -13 -20 -35 -21 -48 -2 -12 -7
-26 -11 -29 -5 -3 -10 -15 -12 -25 -2 -10 -4 -19 -5 -19 -4 0 -10 -82 -11
-146 -1 -80 7 -136 29 -204 9 -27 15 -53 14 -57 -1 -5 3 -8 9 -8 5 0 8 -4 5
-9 -4 -5 -3 -11 2 -13 12 -5 67 -102 63 -113 -1 -5 1 -7 4 -3 10 10 75 -64 68
-76 -4 -5 -1 -6 6 -2 6 4 14 0 17 -8 3 -9 12 -16 19 -16 7 0 15 -3 17 -7 5
-12 75 -63 85 -63 5 0 19 -9 31 -20 12 -12 22 -18 22 -15 0 3 13 -1 29 -9 73
-38 174 -58 296 -58 145 0 240 19 348 69 88 41 90 47 52 122 -13 27 -22 51
-20 55 3 3 2 4 -1 1 -4 -2 -20 25 -37 60 -31 68 -40 74 -72 52 -25 -16 -98
-43 -145 -53 -90 -18 -233 1 -314 43 -33 17 -126 101 -126 114 0 5 -8 18 -17
29 -10 11 -18 24 -18 28 -1 4 -6 17 -13 30 -7 12 -10 27 -7 32 3 6 1 10 -5 10
-16 0 -8 175 10 215 7 17 14 34 14 38 1 4 7 11 14 16 8 5 14 12 14 17 1 22 23
54 36 54 9 0 12 3 9 7 -9 8 53 64 64 57 5 -3 9 -1 9 3 0 10 73 43 103 46 12 1
25 6 28 10 7 10 164 12 209 2 19 -4 41 -12 48 -17 6 -6 12 -7 12 -4 0 4 10 1
23 -6 12 -7 24 -13 27 -13 3 0 20 -9 38 -18 18 -10 31 -14 31 -10 -4 16 28 73
36 66 4 -5 5 -3 1 4 -3 6 2 27 13 45 43 78 55 104 58 129 3 23 -3 29 -59 56
-134 66 -329 95 -475 72z"/>
<path d="M988 1165 c-2 -2 -21 -5 -44 -8 -46 -7 -86 -22 -125 -49 -14 -9 -29
-15 -33 -11 -3 3 -6 2 -6 -4 0 -5 -20 -32 -45 -58 -25 -27 -44 -54 -43 -60 1
-5 -3 -20 -10 -33 -7 -12 -10 -27 -7 -32 3 -5 1 -11 -4 -14 -25 -16 7 -187 44
-234 88 -112 179 -152 335 -147 52 1 109 7 125 13 49 16 85 35 85 44 0 4 6 8
13 8 21 0 88 79 110 130 38 85 28 222 -20 288 -13 17 -21 32 -17 32 3 0 -11
16 -32 35 -43 38 -122 80 -169 90 -33 7 -152 14 -157 10z"/>
<path d="M1559 953 c-19 -54 -16 -190 3 -233 16 -34 16 -31 17 118 1 83 -1
152 -3 152 -3 0 -10 -17 -17 -37z"/>
</g>
</svg>
